# xmcd CD database file
#
# Track frame offsets:
#	150
#	17951
#	33106
#	54549
#	72004
#	84261
#	91982
#	108529
#	125014
#	150755
#
# Disc length: 2191 seconds
#
# Revision: 0
# Processed by: cddbd v1.5.2PL0 Copyright (c) Steve Scherf et al.
# Submitted via: CDex 1.70beta2
#
DISCID=70088d0a
DTITLE=Edil Hernani - IWXA
DYEAR=2002
DGENRE=New Age
TTITLE0=Iwxa (mensaje)
TTITLE1=Akapacha (este mundo andino)
TTITLE2=Sajama (achachila, señor del ande)
TTITLE3=Espejismo (mirage)
TTITLE4=How long blues
TTITLE5=Body and soul
TTITLE6=Tapnaqiri (el que camina lentamente)
TTITLE7=en cuartas...
TTITLE8=La oración de la mañana
TTITLE9=Mi corazón en la ciudad
EXTD=YEAR: 2002
EXTT0=
EXTT1=
EXTT2=
EXTT3=
EXTT4=
EXTT5=
EXTT6=
EXTT7=
EXTT8=
EXTT9=
PLAYORDER=
